<mxfile host="app.diagrams.net" modified="2022-05-06T09:18:33.147Z" agent="5.0 (Windows NT 10.0; Win64; x64) AppleWebKit/537.36 (KHTML, like Gecko) Chrome/101.0.4951.41 Safari/537.36 Edg/101.0.1210.32" etag="mZHzq6HQEO6B9oXU8Ted" version="18.0.1" type="github">
  <diagram id="aSXv0q1WuANGzLaSVxcl" name="第 1 页">
    <mxGraphModel dx="965" dy="548" grid="0" gridSize="10" guides="1" tooltips="1" connect="1" arrows="1" fold="1" page="0" pageScale="1" pageWidth="827" pageHeight="1169" math="0" shadow="0">
      <root>
        <mxCell id="0" />
        <mxCell id="1" parent="0" />
      </root>
    </mxGraphModel>
  </diagram>
</mxfile>
